<?xml version="1.0" encoding="UTF-8"?>
<svg id="Layer_1" data-name="Layer 1" xmlns="http://www.w3.org/2000/svg" viewBox="0 0 960 960">
  <defs>
    <style>
      .cls-1, .cls-2 {
        fill: #0068ff;
      }

      .cls-1, .cls-2, .cls-3 {
        stroke-width: 0px;
      }

      .cls-2 {
        fill-rule: evenodd;
      }

      .cls-3 {
        fill: #005be0;
      }
    </style>
  </defs>
  <path class="cls-1" d="M347.49,51.61c-.54,3.31-3.8,3.72-6.11,5.07-39.25,22.99-75.12,50.54-105.25,84.63-49.95,56.29-84.24,121.1-95.93,196.02-5.36,34.55-6.54,67.72-3.69,99.54.21,2.32.44,4.64.69,6.95.17,1.54.34,3.08.53,4.61.1.82.2,1.65.31,2.47,10.86,84.82,50.9,159.98,116.73,225.95,12.05,12.2,16.52,22.42,13.03,35.72-1.38,4.97-3.86,10.35-7.48,16.41-16.06,27.15-40.43,45.58-66.4,62.43-2.78,1.78-5.55,3.57-8.13,5.55-.27.23-.51.46-.73.67-.04.04-.08.07-.11.11-3.23,3.18-.75,4.85,2.62,6.35.8,1.78,1.78,3.37,2.97,4.96,22.79,20.21,44.4,41.82,66.79,62.43,10.51,9.71,21.01,19.82,31.12,29.93.87.79,1.87,1.47,2.91,2.11,2.63,1.76,5.53,3.19,7.38,5.62h-143.88c-71.15,0-128.83-57.68-128.83-128.83V179.76c0-71.15,57.68-128.83,128.83-128.83h192.28c.13.18.24.4.34.68Z"/>
  <path class="cls-3" d="M933.09,672.64c0,1.51-.27,2.98-.27,4.41v117.14c0,.1,0,.2,0,.3,0,.4,0,.8,0,1.19,0,.06,0,.12,0,.19,0,.47-.01.94-.03,1.4,0,.27-.01.53-.02.8,0,.12-.01.24-.01.35-8.8,62.58-62.56,110.72-127.57,110.72h-506.34c-1.85-2.54-4.79-3.97-7.47-5.62-1.04-.69-2.04-1.43-2.91-2.31-10.11-10.31-20.61-20.22-31.12-29.93-22.4-20.61-44-42.22-66.79-62.44-1.19-1.58-2.18-3.17-2.97-4.95,50.54,9.91,99.9,3.17,148.46-11.69,16.45-4.96,32.9-9.91,49.55-14.07,11.3-2.97,23.19-2.38,34.09,1.59,125.66,43.21,249.74,39.24,371.83-14.27,49.75-22,95.14-52.92,133.59-91.57,1.98-1.98,3.37-4.95,6.94-5.15.81,1.27,1.05,2.58,1.06,3.91Z"/>
  <g id="Page-1">
    <path id="Combined-Shape" class="cls-2" d="M569.49,365.98v-11.69h35v164.32h-20.03c-8.24,0-14.94-6.66-14.98-14.89,0,0-.01,0-.02.01-14.1,10.31-31.53,16.43-50.35,16.43-47.15,0-85.37-38.2-85.37-85.32s38.23-85.32,85.37-85.32c18.83,0,36.25,6.12,50.35,16.43,0,0,.01,0,.02.01ZM424.68,301.45v5.33c0,9.94-1.33,18.05-7.78,27.57l-.78.89c-1.41,1.6-4.72,5.35-6.29,7.39l-112.37,141.04h127.23v19.97c0,8.27-6.71,14.98-14.99,14.98h-164.85v-9.41c0-11.53,2.86-16.67,6.49-22.03l119.79-148.27h-121.28v-37.44h174.85ZM646.95,518.62c-6.88,0-12.48-5.59-12.48-12.47v-204.69h37.47v217.16h-24.99ZM782.72,348.51c47.47,0,85.95,38.49,85.95,85.89s-38.47,85.93-85.95,85.93-85.95-38.49-85.95-85.93,38.47-85.89,85.95-85.89ZM519.12,485.05c27.75,0,50.23-22.47,50.23-50.2s-22.48-50.15-50.23-50.15-50.23,22.47-50.23,50.15,22.48,50.2,50.23,50.2ZM782.72,484.96c27.91,0,50.56-22.63,50.56-50.57s-22.65-50.52-50.56-50.52-50.56,22.63-50.56,50.52,22.61,50.57,50.56,50.57Z"/>
  </g>
</svg>